# xmcd
#
# Track frame offsets: 
#        151
#        18167
#        31729
#        59465
#        78724
#        97544
#        120065
#        143911
#        164137
#        180262
#        196489
#        213631
#        232614
#        253503
#        265912
#        289776
#        311386
#
# Disc length: 4383 seconds
#
# Revision: 0
# Processed by: cddbd v1.5.1PL2 Copyright (c) Steve Scherf et al.
# Submitted via: ExactAudioCopy v0.95a4
#
DISCID=d8111d11
DTITLE=Steve Earle - Heavy Metal Blue Grass (Undrugged in Bern) [CD2]
DYEAR=1997
DGENRE=Country
TTITLE0=Devil's Right Hand
TTITLE1=Nothing But You
TTITLE2=Goodbye
TTITLE3=Johnny Too Bad
TTITLE4=NYC
TTITLE5=The Unrepentant
TTITLE6=Sweet Virginia
TTITLE7=Sin City
TTITLE8=Johnny Come Lately
TTITLE9=Valentine's Day
TTITLE10=Guitar Town
TTITLE11=I Ain't Never Satisfied
TTITLE12=Forth Worth Blues
TTITLE13=Intro
TTITLE14=Ellis Union One
TTITLE15=State Trooper
TTITLE16=It Take a Lot to Laugh, It Takes a Train to Cry
EXTD=
EXTT0=
EXTT1=
EXTT2=
EXTT3=
EXTT4=
EXTT5=
EXTT6=
EXTT7=
EXTT8=
EXTT9=
EXTT10=
EXTT11=
EXTT12=
EXTT13=
EXTT14=
EXTT15=
EXTT16=
PLAYORDER=
